<?xml version="1.0" encoding="iso-8859-1"?>
<!-- Generator: Adobe Illustrator 19.0.0, SVG Export Plug-In . SVG Version: 6.00 Build 0)  -->
<svg xmlns="http://www.w3.org/2000/svg" xmlns:xlink="http://www.w3.org/1999/xlink" version="1.1" id="Capa_1" x="0px" y="0px" viewBox="0 0 512 512" style="enable-background:new 0 0 512 512;" xml:space="preserve">
<polygon style="fill:#2DCEEA;" points="464.5,469.5 504.5,469.5 504.5,429.5 434.5,399.5 "/>
<polygon style="fill:#17FFE9;" points="7.5,429.5 7.5,469.5 464.5,469.5 464.5,369.5 "/>
<polygon style="fill:#576CEB;" points="464.5,429.5 504.5,429.5 504.5,389.5 434.5,359.5 "/>
<polygon style="fill:#429DEA;" points="464.5,329.5 7.5,389.5 7.5,429.5 464.5,429.5 "/>
<polygon style="fill:#2DCEEA;" points="464.5,389.5 504.5,389.5 504.5,349.5 434.5,319.5 "/>
<polygon style="fill:#17FFE9;" points="464.5,289.5 7.5,349.5 7.5,389.5 464.5,389.5 "/>
<polygon style="fill:#429DEA;" points="464.5,42.5 424.5,196 464.5,349.5 504.5,349.5 504.5,42.5 "/>
<rect x="7.5" y="42.5" style="fill:#2DCEEA;" width="457" height="307"/>
<path style="fill:#8BFFF4;" d="M419.5,82.5h-327c0,24.853-20.147,45-45,45v137c24.853,0,45,20.147,45,45h327  c0-24.853,20.147-45,45-45v-137C439.647,127.5,419.5,107.353,419.5,82.5z"/>
<g>
	<circle style="fill:#17FFE9;" cx="256" cy="196" r="83.5"/>
	<circle style="fill:#17FFE9;" cx="110" cy="196" r="20"/>
	<circle style="fill:#17FFE9;" cx="402" cy="196" r="20"/>
</g>
<path d="M504.5,412c-4.143,0-7.5,3.357-7.5,7.5v2.5H15v-2.5c0-4.143-3.357-7.5-7.5-7.5S0,415.357,0,419.5v10  c0,4.143,3.357,7.5,7.5,7.5h497c4.143,0,7.5-3.357,7.5-7.5v-10C512,415.357,508.643,412,504.5,412z"/>
<path d="M504.5,35H7.5C3.357,35,0,38.357,0,42.5v307c0,4.143,3.357,7.5,7.5,7.5h497c4.143,0,7.5-3.357,7.5-7.5v-307  C512,38.357,508.643,35,504.5,35z M497,342H15V50h482V342z"/>
<path d="M256,287c50.178,0,91-40.822,91-91c0-18.589-5.585-36.479-16.151-51.738c-2.357-3.407-7.031-4.253-10.436-1.896  c-3.405,2.358-4.255,7.03-1.896,10.436C327.338,165.539,332,180.478,332,196c0,41.906-34.094,76-76,76s-76-34.094-76-76  s34.094-76,76-76c15.524,0,30.462,4.663,43.199,13.484c3.406,2.359,8.078,1.51,10.437-1.896s1.51-8.078-1.896-10.437  C292.481,110.586,274.59,105,256,105c-50.178,0-91,40.822-91,91S205.822,287,256,287z"/>
<path d="M110,223.5c14.461,0,26.506-11.31,27.421-25.748c0.262-4.134-2.877-7.697-7.011-7.96c-4.164-0.253-7.698,2.878-7.96,7.011  c-0.415,6.56-5.884,11.697-12.45,11.697c-6.893,0-12.5-5.607-12.5-12.5c0-6.566,5.138-12.035,11.697-12.45  c4.134-0.263,7.272-3.826,7.011-7.96c-0.263-4.134-3.825-7.257-7.96-7.011C93.81,169.494,82.5,181.539,82.5,196  C82.5,211.163,94.837,223.5,110,223.5z"/>
<path d="M402,223.5c14.461,0,26.506-11.31,27.421-25.748c0.262-4.134-2.877-7.697-7.011-7.96c-4.152-0.253-7.697,2.878-7.96,7.011  c-0.415,6.56-5.884,11.697-12.45,11.697c-6.893,0-12.5-5.607-12.5-12.5c0-6.566,5.138-12.035,11.697-12.45  c4.134-0.263,7.272-3.826,7.011-7.96s-3.813-7.257-7.96-7.011C385.81,169.494,374.5,181.539,374.5,196  C374.5,211.163,386.837,223.5,402,223.5z"/>
<path d="M47.5,272c20.678,0,37.5,16.822,37.5,37.5c0,4.143,3.357,7.5,7.5,7.5h327c4.143,0,7.5-3.357,7.5-7.5  c0-20.678,16.822-37.5,37.5-37.5c4.143,0,7.5-3.357,7.5-7.5v-137c0-4.143-3.357-7.5-7.5-7.5c-20.678,0-37.5-16.822-37.5-37.5  c0-4.143-3.357-7.5-7.5-7.5h-327c-4.143,0-7.5,3.357-7.5,7.5c0,20.678-16.822,37.5-37.5,37.5c-4.143,0-7.5,3.357-7.5,7.5v137  C40,268.643,43.357,272,47.5,272z M55,134.466C77.958,131.168,96.168,112.958,99.466,90h313.068  c3.298,22.958,21.508,41.168,44.466,44.466v123.068c-22.958,3.298-41.168,21.508-44.466,44.466H99.466  C96.168,279.042,77.958,260.832,55,257.534V134.466z"/>
<path d="M504.5,452c-4.143,0-7.5,3.357-7.5,7.5v2.5H15v-2.5c0-4.143-3.357-7.5-7.5-7.5S0,455.357,0,459.5v10  c0,4.143,3.357,7.5,7.5,7.5h497c4.143,0,7.5-3.357,7.5-7.5v-10C512,455.357,508.643,452,504.5,452z"/>
<path d="M504.5,372c-4.143,0-7.5,3.357-7.5,7.5v2.5H15v-2.5c0-4.143-3.357-7.5-7.5-7.5S0,375.357,0,379.5v10  c0,4.143,3.357,7.5,7.5,7.5h497c4.143,0,7.5-3.357,7.5-7.5v-10C512,375.357,508.643,372,504.5,372z"/>
<g>
</g>
<g>
</g>
<g>
</g>
<g>
</g>
<g>
</g>
<g>
</g>
<g>
</g>
<g>
</g>
<g>
</g>
<g>
</g>
<g>
</g>
<g>
</g>
<g>
</g>
<g>
</g>
<g>
</g>
</svg>
